TRON - Legacy [2010]
Music by DAFT PUNK

FLAC Compression Level 8

Enjoy!

I will seed 'til the end of days.

Ripped with:
dBpoweramp Release 14.1 Digital Audio Extraction Log from domingo, 01 de enero de 2012 09:56 p.m.

Drive & Settings
----------------

Ripping with drive 'E:   [HL-DT-ST - DVDRAM GH22NS70 ]',  Drive offset: 667,  Overread Lead-in/out: No
AccurateRip: Active,  Using C2: No,  Cache: 1024 KB,  FUA Cache Invalidate: No
Pass 1 Drive Speed: Max,  Pass 2 Drive Speed: Max
Ultra::  Vary Drive Speed: No,  Min Passes: 3,  Max Passes: 6,  Finish After Clean Passes: 2
Bad Sector Re-rip::  Drive Speed: Max,  Maximum Re-reads: 34

Encoder: FLAC -compression-level-8 -verify
DSP Effects / Actions: -dspeffect1="ReplayGain=-albummode={qt}0{qt}"

Extraction Log
--------------

Track 1:  Ripped LBA 0 to 11101 (2:28) in 0:14. Filename: D:\Torrent Download\TRON LEGACY\Daft Punk\Tron; Legacy\01 Daft Punk - Overture.flac
  AccurateRip: Accurate (confidence 4)     [Pass 1]
  CRC32: EC65DC48     AccurateRip CRC: 67169E09     [DiscID: 022-0029af3d-02a9da78-2a0dc516-1]
  AccurateRip Verified Confidence 4 [CRCv2 67169e09], Using Pressing Offset -646
  AccurateRip Verified Confidence 9 [CRCv1 512fe00c], Using Pressing Offset -646
  AccurateRip Verified Confidence 4 [CRCv2 ea02f489], Using Pressing Offset -694
  AccurateRip Verified Confidence 8 [CRCv1 dcded2f3], Using Pressing Offset -694

Track 2:  Ripped LBA 11101 to 18357 (1:36) in 0:04. Filename: D:\Torrent Download\TRON LEGACY\Daft Punk\Tron; Legacy\02 Daft Punk - The Grid.flac
  AccurateRip: Accurate (confidence 4)     [Pass 1]
  CRC32: 78A76146     AccurateRip CRC: B1F783DE     [DiscID: 022-0029af3d-02a9da78-2a0dc516-2]
  AccurateRip Verified Confidence 4 [CRCv2 b1f783de], Using Pressing Offset -646
  AccurateRip Verified Confidence 9 [CRCv1 15f004bf], Using Pressing Offset -646
  AccurateRip Verified Confidence 5 [CRCv2 4b906356], Using Pressing Offset -694
  AccurateRip Verified Confidence 8 [CRCv1 ae386f99], Using Pressing Offset -694

Track 3:  Ripped LBA 18357 to 25499 (1:35) in 0:04. Filename: D:\Torrent Download\TRON LEGACY\Daft Punk\Tron; Legacy\03 Daft Punk - The Son of Flynn.flac
  AccurateRip: Accurate (confidence 4)     [Pass 1]
  CRC32: 9C9ADA4C     AccurateRip CRC: 3FD57A07     [DiscID: 022-0029af3d-02a9da78-2a0dc516-3]
  AccurateRip Verified Confidence 4 [CRCv2 3fd57a07], Using Pressing Offset -646
  AccurateRip Verified Confidence 9 [CRCv1 33163a35], Using Pressing Offset -646
  AccurateRip Verified Confidence 5 [CRCv2 32a7071e], Using Pressing Offset -694
  AccurateRip Verified Confidence 8 [CRCv1 2bbdcb54], Using Pressing Offset -694

Track 4:  Ripped LBA 25499 to 37327 (2:37) in 0:07. Filename: D:\Torrent Download\TRON LEGACY\Daft Punk\Tron; Legacy\04 Daft Punk - Recognizer.flac
  AccurateRip: Accurate (confidence 4)     [Pass 1]
  CRC32: F93438FD     AccurateRip CRC: 7FC5C813     [DiscID: 022-0029af3d-02a9da78-2a0dc516-4]
  AccurateRip Verified Confidence 4 [CRCv2 7fc5c813], Using Pressing Offset -646
  AccurateRip Verified Confidence 9 [CRCv1 39ed276b], Using Pressing Offset -646
  AccurateRip Verified Confidence 5 [CRCv2 c7371ed5], Using Pressing Offset -694
  AccurateRip Verified Confidence 8 [CRCv1 8b4f699a], Using Pressing Offset -694

Track 5:  Ripped LBA 37327 to 46550 (2:02) in 0:05. Filename: D:\Torrent Download\TRON LEGACY\Daft Punk\Tron; Legacy\05 Daft Punk - Armory.flac
  AccurateRip: Accurate (confidence 4)     [Pass 1]
  CRC32: 0527095E     AccurateRip CRC: D213677F     [DiscID: 022-0029af3d-02a9da78-2a0dc516-5]
  AccurateRip Verified Confidence 4 [CRCv2 d213677f], Using Pressing Offset -646
  AccurateRip Verified Confidence 9 [CRCv1 d7a8819e], Using Pressing Offset -646
  AccurateRip Verified Confidence 5 [CRCv2 b2a06555], Using Pressing Offset -694
  AccurateRip Verified Confidence 8 [CRCv1 b8944012], Using Pressing Offset -694

Track 6:  Ripped LBA 46550 to 53543 (1:33) in 0:03. Filename: D:\Torrent Download\TRON LEGACY\Daft Punk\Tron; Legacy\06 Daft Punk - Arena.flac
  AccurateRip: Accurate (confidence 4)     [Pass 1]
  CRC32: DDADD60C     AccurateRip CRC: 0A787A0D     [DiscID: 022-0029af3d-02a9da78-2a0dc516-6]
  AccurateRip Verified Confidence 4 [CRCv2 a787a0d], Using Pressing Offset -646
  AccurateRip Verified Confidence 9 [CRCv1 c16a7004], Using Pressing Offset -646
  AccurateRip Verified Confidence 5 [CRCv2 eae0d6a6], Using Pressing Offset -694
  AccurateRip Verified Confidence 8 [CRCv1 9beb0ac7], Using Pressing Offset -694

Track 7:  Ripped LBA 53543 to 63866 (2:17) in 0:05. Filename: D:\Torrent Download\TRON LEGACY\Daft Punk\Tron; Legacy\07 Daft Punk - Rinzler.flac
  AccurateRip: Accurate (confidence 4)     [Pass 1]
  CRC32: 1F7FAB75     AccurateRip CRC: 459B9E7E     [DiscID: 022-0029af3d-02a9da78-2a0dc516-7]
  AccurateRip Verified Confidence 4 [CRCv2 459b9e7e], Using Pressing Offset -646
  AccurateRip Verified Confidence 9 [CRCv1 ee1124ce], Using Pressing Offset -646
  AccurateRip Verified Confidence 5 [CRCv2 dd43f7e], Using Pressing Offset -694
  AccurateRip Verified Confidence 7 [CRCv1 aea9359e], Using Pressing Offset -694

Track 8:  Ripped LBA 63866 to 79277 (3:25) in 0:08. Filename: D:\Torrent Download\TRON LEGACY\Daft Punk\Tron; Legacy\08 Daft Punk - The Game Has Changed.flac
  AccurateRip: Accurate (confidence 4)     [Pass 1]
  CRC32: 7CBDF096     AccurateRip CRC: D7082676     [DiscID: 022-0029af3d-02a9da78-2a0dc516-8]
  AccurateRip Verified Confidence 4 [CRCv2 d7082676], Using Pressing Offset -646
  AccurateRip Verified Confidence 9 [CRCv1 2cf7282c], Using Pressing Offset -646
  AccurateRip Verified Confidence 5 [CRCv2 7f34f1f7], Using Pressing Offset -694
  AccurateRip Verified Confidence 7 [CRCv1 cd43b8b8], Using Pressing Offset -694

Track 9:  Ripped LBA 79277 to 91463 (2:42) in 0:06. Filename: D:\Torrent Download\TRON LEGACY\Daft Punk\Tron; Legacy\09 Daft Punk - Outlands.flac
  AccurateRip: Accurate (confidence 4)     [Pass 1]
  CRC32: D85A4D5E     AccurateRip CRC: BFE21448     [DiscID: 022-0029af3d-02a9da78-2a0dc516-9]
  AccurateRip Verified Confidence 4 [CRCv2 bfe21448], Using Pressing Offset -646
  AccurateRip Verified Confidence 9 [CRCv1 e28543db], Using Pressing Offset -646
  AccurateRip Verified Confidence 5 [CRCv2 e0ffdf08], Using Pressing Offset -694
  AccurateRip Verified Confidence 7 [CRCv1 de3d45d], Using Pressing Offset -694

Track 10:  Ripped LBA 91463 to 110295 (4:11) in 0:09. Filename: D:\Torrent Download\TRON LEGACY\Daft Punk\Tron; Legacy\10 Daft Punk - Adagio for Tron.flac
  AccurateRip: Accurate (confidence 4)     [Pass 1]
  CRC32: 5E0620F0     AccurateRip CRC: 59B81E8A     [DiscID: 022-0029af3d-02a9da78-2a0dc516-10]
  AccurateRip Verified Confidence 4 [CRCv2 59b81e8a], Using Pressing Offset -646
  AccurateRip Verified Confidence 9 [CRCv1 5d61a733], Using Pressing Offset -646
  AccurateRip Verified Confidence 5 [CRCv2 3b9b2751], Using Pressing Offset -694
  AccurateRip Verified Confidence 7 [CRCv1 2f62faa2], Using Pressing Offset -694

Track 11:  Ripped LBA 110295 to 117921 (1:41) in 0:03. Filename: D:\Torrent Download\TRON LEGACY\Daft Punk\Tron; Legacy\11 Daft Punk - Nocturne.flac
  AccurateRip: Accurate (confidence 4)     [Pass 1]
  CRC32: F40E826E     AccurateRip CRC: 6AFF7209     [DiscID: 022-0029af3d-02a9da78-2a0dc516-11]
  AccurateRip Verified Confidence 4 [CRCv2 6aff7209], Using Pressing Offset -646
  AccurateRip Verified Confidence 9 [CRCv1 fdcd02d3], Using Pressing Offset -646
  AccurateRip Verified Confidence 5 [CRCv2 ef562be9], Using Pressing Offset -694
  AccurateRip Verified Confidence 7 [CRCv1 7de692f0], Using Pressing Offset -694

Track 12:  Ripped LBA 117921 to 129657 (2:36) in 0:05. Filename: D:\Torrent Download\TRON LEGACY\Daft Punk\Tron; Legacy\12 Daft Punk - End of Line.flac
  AccurateRip: Accurate (confidence 4)     [Pass 1]
  CRC32: 931CEE83     AccurateRip CRC: 1125FFF1     [DiscID: 022-0029af3d-02a9da78-2a0dc516-12]
  AccurateRip Verified Confidence 4 [CRCv2 1125fff1], Using Pressing Offset -646
  AccurateRip Verified Confidence 9 [CRCv1 b2f2fd15], Using Pressing Offset -646
  AccurateRip Verified Confidence 5 [CRCv2 166055a2], Using Pressing Offset -694
  AccurateRip Verified Confidence 7 [CRCv1 ae34fcc5], Using Pressing Offset -694

Track 13:  Ripped LBA 129657 to 137466 (1:44) in 0:03. Filename: D:\Torrent Download\TRON LEGACY\Daft Punk\Tron; Legacy\13 Daft Punk - Derezzed.flac
  AccurateRip: Accurate (confidence 4)     [Pass 1]
  CRC32: D3724CB3     AccurateRip CRC: FDA7EAB6     [DiscID: 022-0029af3d-02a9da78-2a0dc516-13]
  AccurateRip Verified Confidence 4 [CRCv2 fda7eab6], Using Pressing Offset -646
  AccurateRip Verified Confidence 9 [CRCv1 caa6c1bf], Using Pressing Offset -646
  AccurateRip Verified Confidence 5 [CRCv2 ab5a7fb3], Using Pressing Offset -694
  AccurateRip Verified Confidence 7 [CRCv1 76b19a43], Using Pressing Offset -694

Track 14:  Ripped LBA 137466 to 143662 (1:22) in 0:02. Filename: D:\Torrent Download\TRON LEGACY\Daft Punk\Tron; Legacy\14 Daft Punk - Fall.flac
  AccurateRip: Accurate (confidence 4)     [Pass 1]
  CRC32: 4FBC8192     AccurateRip CRC: DDF89392     [DiscID: 022-0029af3d-02a9da78-2a0dc516-14]
  AccurateRip Verified Confidence 4 [CRCv2 ddf89392], Using Pressing Offset -646
  AccurateRip Verified Confidence 9 [CRCv1 6e0293da], Using Pressing Offset -646
  AccurateRip Verified Confidence 5 [CRCv2 498f61f0], Using Pressing Offset -694
  AccurateRip Verified Confidence 7 [CRCv1 dbd58232], Using Pressing Offset -694

Track 15:  Ripped LBA 143662 to 155821 (2:42) in 0:05. Filename: D:\Torrent Download\TRON LEGACY\Daft Punk\Tron; Legacy\15 Daft Punk - Solar Sailer.flac
  AccurateRip: Accurate (confidence 4)     [Pass 1]
  CRC32: EEF9AB40     AccurateRip CRC: 928CBA27     [DiscID: 022-0029af3d-02a9da78-2a0dc516-15]
  AccurateRip Verified Confidence 4 [CRCv2 928cba27], Using Pressing Offset -646
  AccurateRip Verified Confidence 9 [CRCv1 40197a6], Using Pressing Offset -646
  AccurateRip Verified Confidence 5 [CRCv2 68c27170], Using Pressing Offset -694
  AccurateRip Verified Confidence 7 [CRCv1 e2b35ee5], Using Pressing Offset -694

Track 16:  Ripped LBA 155821 to 165875 (2:14) in 0:04. Filename: D:\Torrent Download\TRON LEGACY\Daft Punk\Tron; Legacy\16 Daft Punk - Rectifier.flac
  AccurateRip: Accurate (confidence 4)     [Pass 1]
  CRC32: 190F0324     AccurateRip CRC: 444084CB     [DiscID: 022-0029af3d-02a9da78-2a0dc516-16]
  AccurateRip Verified Confidence 4 [CRCv2 444084cb], Using Pressing Offset -646
  AccurateRip Verified Confidence 9 [CRCv1 367cec48], Using Pressing Offset -646
  AccurateRip Verified Confidence 5 [CRCv2 dbe069da], Using Pressing Offset -694
  AccurateRip Verified Confidence 7 [CRCv1 d68c7902], Using Pressing Offset -694

Track 17:  Ripped LBA 165875 to 184733 (4:11) in 0:07. Filename: D:\Torrent Download\TRON LEGACY\Daft Punk\Tron; Legacy\17 Daft Punk - Disc Wars.flac
  AccurateRip: Accurate (confidence 4)     [Pass 1]
  CRC32: 0DE20C63     AccurateRip CRC: D43F03FE     [DiscID: 022-0029af3d-02a9da78-2a0dc516-17]
  AccurateRip Verified Confidence 4 [CRCv2 d43f03fe], Using Pressing Offset -646
  AccurateRip Verified Confidence 9 [CRCv1 bc71f48d], Using Pressing Offset -646
  AccurateRip Verified Confidence 5 [CRCv2 a8bc25f5], Using Pressing Offset -694
  AccurateRip Verified Confidence 7 [CRCv1 80ec148d], Using Pressing Offset -694

Track 18:  Ripped LBA 184733 to 205682 (4:39) in 0:08. Filename: D:\Torrent Download\TRON LEGACY\Daft Punk\Tron; Legacy\18 Daft Punk - C.L.U..flac
  AccurateRip: Accurate (confidence 4)     [Pass 1]
  CRC32: 4EC33CB0     AccurateRip CRC: DAA7772D     [DiscID: 022-0029af3d-02a9da78-2a0dc516-18]
  AccurateRip Verified Confidence 4 [CRCv2 daa7772d], Using Pressing Offset -646
  AccurateRip Verified Confidence 9 [CRCv1 66bf2e92], Using Pressing Offset -646
  AccurateRip Verified Confidence 5 [CRCv2 dd256608], Using Pressing Offset -694
  AccurateRip Verified Confidence 7 [CRCv1 640a2183], Using Pressing Offset -694

Track 19:  Ripped LBA 205682 to 214719 (2:00) in 0:03. Filename: D:\Torrent Download\TRON LEGACY\Daft Punk\Tron; Legacy\19 Daft Punk - Arrival.flac
  AccurateRip: Accurate (confidence 4)     [Pass 1]
  CRC32: 6AE129CB     AccurateRip CRC: E39CB4E3     [DiscID: 022-0029af3d-02a9da78-2a0dc516-19]
  AccurateRip Verified Confidence 4 [CRCv2 e39cb4e3], Using Pressing Offset -646
  AccurateRip Verified Confidence 9 [CRCv1 3fbeb6bb], Using Pressing Offset -646
  AccurateRip Verified Confidence 5 [CRCv2 9eca4cbe], Using Pressing Offset -694
  AccurateRip Verified Confidence 7 [CRCv1 236062a], Using Pressing Offset -694

Track 20:  Ripped LBA 214719 to 229880 (3:22) in 0:05. Filename: D:\Torrent Download\TRON LEGACY\Daft Punk\Tron; Legacy\20 Daft Punk - Flynn Lives.flac
  AccurateRip: Accurate (confidence 4)     [Pass 1]
  CRC32: B63CBA6E     AccurateRip CRC: DA6AFF84     [DiscID: 022-0029af3d-02a9da78-2a0dc516-20]
  AccurateRip Verified Confidence 4 [CRCv2 da6aff84], Using Pressing Offset -646
  AccurateRip Verified Confidence 9 [CRCv1 423c2e6a], Using Pressing Offset -646
  AccurateRip Verified Confidence 5 [CRCv2 8e29afb7], Using Pressing Offset -694
  AccurateRip Verified Confidence 7 [CRCv1 2b4fa29], Using Pressing Offset -694

Track 21:  Ripped LBA 229880 to 244717 (3:17) in 0:05. Filename: D:\Torrent Download\TRON LEGACY\Daft Punk\Tron; Legacy\21 Daft Punk - Tron Legacy.flac
  AccurateRip: Accurate (confidence 4)     [Pass 1]
  CRC32: 5E05AECF     AccurateRip CRC: C2028347     [DiscID: 022-0029af3d-02a9da78-2a0dc516-21]
  AccurateRip Verified Confidence 4 [CRCv2 c2028347], Using Pressing Offset -646
  AccurateRip Verified Confidence 9 [CRCv1 9bd58198], Using Pressing Offset -646
  AccurateRip Verified Confidence 5 [CRCv2 dd16e67d], Using Pressing Offset -694
  AccurateRip Verified Confidence 7 [CRCv1 b337ff81], Using Pressing Offset -694

Track 22:  Ripped LBA 244717 to 264426 (4:22) in 0:06. Filename: D:\Torrent Download\TRON LEGACY\Daft Punk\Tron; Legacy\22 Daft Punk - Finale.flac
  AccurateRip: Accurate (confidence 4)     [Pass 1]
  CRC32: 9E735CA5     AccurateRip CRC: D0422928     [DiscID: 022-0029af3d-02a9da78-2a0dc516-22]
  AccurateRip Verified Confidence 4 [CRCv2 d0422928], Using Pressing Offset -646
  AccurateRip Verified Confidence 9 [CRCv1 3396fd2a], Using Pressing Offset -646
  AccurateRip Verified Confidence 5 [CRCv2 962276ea], Using Pressing Offset -694
  AccurateRip Verified Confidence 7 [CRCv1 eb1b17d1], Using Pressing Offset -694

--------------

22 Tracks Ripped Accurately